<svg width="16" height="16" viewBox="0 0 16 16" fill="none" xmlns="http://www.w3.org/2000/svg">
<path d="M15.325 7.45L12.5417 1.88334C12.3338 1.46697 12.0139 1.11688 11.6178 0.872485C11.2218 0.628091 10.7654 0.49909 10.3 0.500005H5.70001C5.23464 0.49909 4.77825 0.628091 4.38221 0.872485C3.98617 1.11688 3.66621 1.46697 3.45835 1.88334L0.675013 7.45C0.558926 7.68291 0.498993 7.93977 0.500013 8.2V13C0.500013 13.663 0.763405 14.2989 1.23225 14.7678C1.70109 15.2366 2.33697 15.5 3.00001 15.5H13C13.6631 15.5 14.2989 15.2366 14.7678 14.7678C15.2366 14.2989 15.5 13.663 15.5 13V8.2C15.501 7.93977 15.4411 7.68291 15.325 7.45ZM4.95001 2.625C5.0199 2.48631 5.12715 2.3699 5.25967 2.28892C5.39219 2.20793 5.54471 2.16559 5.70001 2.16667H10.3C10.4553 2.16559 10.6078 2.20793 10.7404 2.28892C10.8729 2.3699 10.9801 2.48631 11.05 2.625L13.3167 7.16667H2.68335L4.95001 2.625ZM13 13.8333H3.00001C2.779 13.8333 2.56704 13.7455 2.41076 13.5893C2.25448 13.433 2.16668 13.221 2.16668 13V8.83334H13.8333V13C13.8333 13.221 13.7455 13.433 13.5893 13.5893C13.433 13.7455 13.221 13.8333 13 13.8333Z" fill="black"/>
<path d="M11.3334 10.5H8.00002C7.77901 10.5 7.56705 10.5878 7.41076 10.7441C7.25448 10.9004 7.16669 11.1123 7.16669 11.3333C7.16669 11.5543 7.25448 11.7663 7.41076 11.9226C7.56705 12.0789 7.77901 12.1667 8.00002 12.1667H11.3334C11.5544 12.1667 11.7663 12.0789 11.9226 11.9226C12.0789 11.7663 12.1667 11.5543 12.1667 11.3333C12.1667 11.1123 12.0789 10.9004 11.9226 10.7441C11.7663 10.5878 11.5544 10.5 11.3334 10.5Z" fill="black"/>
<path d="M4.66671 12.1667C5.12694 12.1667 5.50004 11.7936 5.50004 11.3333C5.50004 10.8731 5.12694 10.5 4.66671 10.5C4.20647 10.5 3.83337 10.8731 3.83337 11.3333C3.83337 11.7936 4.20647 12.1667 4.66671 12.1667Z" fill="black"/>
</svg>
