<svg width="14" height="18" viewBox="0 0 14 18" fill="none" xmlns="http://www.w3.org/2000/svg">
<path d="M13.487 7.48333L7.63956 0.916665C7.56906 0.838558 7.48517 0.776562 7.39275 0.734255C7.30033 0.691948 7.2012 0.670166 7.10108 0.670166C7.00096 0.670166 6.90183 0.691948 6.8094 0.734255C6.71698 0.776562 6.6331 0.838558 6.56259 0.916665L0.715122 7.49166C0.573627 7.64839 0.461879 7.83444 0.386365 8.03901C0.310851 8.24357 0.273076 8.46259 0.275234 8.68333V15.6667C0.274646 16.0933 0.422955 16.5039 0.689619 16.8139C0.956283 17.124 1.321 17.3099 1.70866 17.3333H12.4935C12.8812 17.3099 13.2459 17.124 13.5125 16.8139C13.7792 16.5039 13.9275 16.0933 13.9269 15.6667V8.68333C13.9275 8.23578 13.7698 7.80548 13.487 7.48333V7.48333ZM5.58422 15.6667V10.6667H8.61793V15.6667H5.58422ZM12.4101 15.6667H10.1348V9.83333C10.1348 9.61232 10.0549 9.40036 9.91265 9.24408C9.77042 9.0878 9.57751 9 9.37636 9H4.8258C4.62465 9 4.43174 9.0878 4.28951 9.24408C4.14728 9.40036 4.06737 9.61232 4.06737 9.83333V15.6667H1.79209V8.65L7.10108 2.69166L12.4101 8.68333V15.6667Z" fill="black"/>
</svg>
